<svg width="430" height="430" viewBox="0 0 430 430" fill="none" xmlns="http://www.w3.org/2000/svg">
<circle cx="215" cy="215" r="210" fill="#D5DEFF" stroke="white" stroke-width="10"/>
<path d="M175.911 248.449L174.711 200.149H189.711C197.111 200.149 204.011 199.649 210.411 198.649C217.011 197.649 222.711 196.049 227.511 193.849C232.311 191.449 236.011 188.049 238.611 183.649C241.411 179.249 242.811 173.649 242.811 166.849C242.811 160.849 241.611 155.749 239.211 151.549C236.811 147.149 233.411 143.849 229.011 141.649C224.611 139.249 219.311 138.049 213.111 138.049C206.911 138.049 201.511 139.249 196.911 141.649C192.511 144.049 189.111 147.349 186.711 151.549C184.311 155.749 183.111 160.749 183.111 166.549H143.511C143.311 154.549 146.011 143.849 151.611 134.449C157.211 124.849 165.311 117.349 175.911 111.949C186.511 106.349 199.211 103.549 214.011 103.549C227.611 103.549 239.611 106.049 250.011 111.049C260.411 115.849 268.611 122.949 274.611 132.349C280.611 141.749 283.611 153.249 283.611 166.849C283.611 180.249 280.611 191.549 274.611 200.749C268.811 209.749 260.711 216.449 250.311 220.849C239.911 225.249 227.811 227.549 214.011 227.749L213.111 248.449H175.911ZM194.811 318.649C187.211 318.649 181.011 316.349 176.211 311.749C171.411 306.949 169.011 301.249 169.011 294.649C169.011 287.849 171.411 282.149 176.211 277.549C181.011 272.949 187.211 270.649 194.811 270.649C202.411 270.649 208.511 272.949 213.111 277.549C217.911 282.149 220.311 287.849 220.311 294.649C220.311 301.249 217.911 306.949 213.111 311.749C208.511 316.349 202.411 318.649 194.811 318.649Z" fill="white"/>
</svg>
