<svg width="430" height="430" viewBox="0 0 430 430" fill="none" xmlns="http://www.w3.org/2000/svg">
<circle cx="215" cy="215" r="210" fill="#BCC9FF" stroke="#A9BAFF" stroke-width="10"/>
<path d="M173.783 249.949L171.983 200.149H186.983C194.383 200.149 201.283 199.649 207.683 198.649C214.283 197.649 219.983 196.049 224.783 193.849C229.583 191.449 233.283 188.049 235.883 183.649C238.683 179.249 240.083 173.549 240.083 166.549C240.083 160.549 238.883 155.449 236.483 151.249C234.083 147.049 230.683 143.849 226.283 141.649C222.083 139.249 217.083 138.049 211.283 138.049C205.283 138.049 200.083 139.249 195.683 141.649C191.283 144.049 187.883 147.349 185.483 151.549C183.083 155.749 181.883 160.749 181.883 166.549H142.283C142.083 154.549 144.683 143.849 150.083 134.449C155.483 124.849 163.383 117.349 173.783 111.949C184.383 106.349 197.083 103.549 211.883 103.549C225.483 103.549 237.483 106.049 247.883 111.049C258.283 115.849 266.383 122.949 272.183 132.349C277.983 141.749 280.883 153.249 280.883 166.849C280.883 180.249 277.883 191.449 271.883 200.449C266.083 209.449 257.983 216.249 247.583 220.849C237.183 225.249 225.183 227.549 211.583 227.749L209.783 249.949H173.783ZM191.783 318.649C184.183 318.649 177.983 316.349 173.183 311.749C168.583 306.949 166.283 301.349 166.283 294.949C166.283 288.149 168.583 282.449 173.183 277.849C177.983 273.249 184.183 270.949 191.783 270.949C199.183 270.949 205.283 273.249 210.083 277.849C214.883 282.449 217.283 288.149 217.283 294.949C217.283 301.349 214.883 306.949 210.083 311.749C205.283 316.349 199.183 318.649 191.783 318.649Z" fill="white"/>
</svg>
