<svg width="562" height="562" viewBox="0 0 562 562" fill="none" xmlns="http://www.w3.org/2000/svg">
<circle cx="281" cy="281" r="276" fill="#BCC9FF" stroke="#A3B5FF" stroke-width="10"/>
<path d="M228.892 325.4L227.292 261H247.292C257.159 261 266.359 260.333 274.892 259C283.692 257.667 291.292 255.533 297.692 252.6C304.092 249.4 309.026 244.867 312.492 239C316.226 233.133 318.092 225.667 318.092 216.6C318.092 208.6 316.492 201.8 313.292 196.2C310.092 190.333 305.559 185.933 299.692 183C293.826 179.8 286.759 178.2 278.492 178.2C270.226 178.2 263.026 179.8 256.892 183C251.026 186.2 246.492 190.6 243.292 196.2C240.092 201.8 238.492 208.467 238.492 216.2H185.692C185.426 200.2 189.026 185.933 196.492 173.4C203.959 160.6 214.759 150.6 228.892 143.4C243.026 135.933 259.959 132.2 279.692 132.2C297.826 132.2 313.826 135.533 327.692 142.2C341.559 148.6 352.492 158.067 360.492 170.6C368.492 183.133 372.492 198.467 372.492 216.6C372.492 234.467 368.492 249.533 360.492 261.8C352.759 273.8 341.959 282.733 328.092 288.6C314.226 294.467 298.092 297.533 279.692 297.8L278.492 325.4H228.892ZM254.092 419C243.959 419 235.692 415.933 229.292 409.8C222.892 403.4 219.692 395.8 219.692 387C219.692 377.933 222.892 370.333 229.292 364.2C235.692 358.067 243.959 355 254.092 355C264.226 355 272.359 358.067 278.492 364.2C284.892 370.333 288.092 377.933 288.092 387C288.092 395.8 284.892 403.4 278.492 409.8C272.359 415.933 264.226 419 254.092 419Z" fill="white"/>
</svg>
