<svg width="405" height="406" viewBox="0 0 405 406" fill="none" xmlns="http://www.w3.org/2000/svg">
<path d="M383.479 202.681C395.917 202.681 406.129 212.794 404.752 225.156C401.117 257.793 389.601 289.18 371.055 316.551C348.283 350.16 315.956 376.169 278.251 391.218C240.547 406.267 199.196 409.665 159.54 400.974C119.884 392.282 83.7448 371.9 55.7908 342.46C27.8368 313.02 9.35193 275.875 2.72395 235.823C-3.90403 195.77 1.62933 154.65 18.6093 117.775C35.5893 80.8992 63.2358 49.9617 97.9778 28.9587C126.272 11.8538 158.213 1.97779 190.994 0.0357221C203.411 -0.699855 212.982 10.0219 212.339 22.4432V22.4432C211.695 34.8645 201.062 44.2451 188.675 45.3731C164.92 47.5364 141.86 55.0628 121.28 67.5042C94.2468 83.8471 72.7346 107.92 59.5221 136.614C46.3097 165.307 42.004 197.303 47.1614 228.469C52.3188 259.635 66.7022 288.538 88.4537 311.446C110.205 334.354 138.326 350.213 169.183 356.976C200.04 363.739 232.216 361.095 261.555 349.385C290.893 337.675 316.047 317.437 333.767 291.285C347.257 271.377 355.966 248.737 359.356 225.126C361.123 212.814 371.041 202.681 383.479 202.681V202.681Z" fill="#E83E34"/>
</svg>
